<svg width="16" height="16" viewBox="0 0 16 16" fill="none" xmlns="http://www.w3.org/2000/svg">
<path fill-rule="evenodd" clip-rule="evenodd" d="M8.50078 2C8.50078 1.44772 8.05306 1 7.50078 1C6.94849 1 6.50078 1.44772 6.50078 2V6.50006C6.50078 8.15691 7.84392 9.50006 9.50078 9.50006H14.0008C14.5531 9.50006 15.0008 9.05234 15.0008 8.50006C15.0008 7.94777 14.5531 7.50006 14.0008 7.50006H9.50078C8.94849 7.50006 8.50078 7.05234 8.50078 6.50006V2ZM1 8.50006C1 5.60765 2.8892 3.15648 5.50098 2.3132V4.4673C4.01873 5.20348 3 6.7328 3 8.50006C3 10.9854 5.01474 13.0001 7.50006 13.0001C9.26695 13.0001 10.796 11.9818 11.5324 10.5001H13.6866C12.8431 13.1114 10.3921 15.0001 7.50006 15.0001C3.91018 15.0001 1 12.0899 1 8.50006ZM9.50098 4.46821C10.3798 4.9052 11.0956 5.62109 11.5324 6.50006H13.6866C13.0467 4.51913 11.4818 2.954 9.50098 2.31379V4.46821Z" fill="#F4AEDE"/>
</svg>
