<svg width="16" height="16" viewBox="0 0 16 16" fill="none" xmlns="http://www.w3.org/2000/svg">
<path fill-rule="evenodd" clip-rule="evenodd" d="M10.7952 3.64387C9.95209 3.2605 9.01152 3.00114 8.00591 3L7.99926 3C5.84583 3 3.99018 4.18479 2.75025 5.23753C2.11534 5.77661 1.60415 6.3132 1.25142 6.71483C1.07446 6.91632 0.935842 7.0856 0.839914 7.20662C0.791913 7.26718 0.754492 7.31579 0.728197 7.35046L0.697129 7.39181L0.687957 7.40421L0.684982 7.40826L0.683899 7.40974L0.68346 7.41035C0.683269 7.41061 0.683088 7.41086 1.49136 7.99967L0.683088 7.41086L0.25415 7.99967L0.683088 8.58848L1.49136 7.99967C0.683088 8.58848 0.683269 8.58873 0.68346 8.58899L0.683899 8.58959L0.684982 8.59107L0.687957 8.59512L0.697129 8.60753L0.728197 8.64888C0.754492 8.68355 0.791913 8.73216 0.839914 8.79271C0.935842 8.91373 1.07446 9.08302 1.25142 9.2845C1.52568 9.59678 1.89573 9.99065 2.34525 10.4038L3.92853 9.13722C3.45618 8.72517 3.06662 8.31795 2.78495 7.99967C3.0894 7.65565 3.51988 7.20773 4.0447 6.76213C4.1923 6.63682 4.34485 6.51381 4.5018 6.3947C4.50076 6.42967 4.50024 6.46478 4.50024 6.5C4.50024 7.15309 4.67912 7.76439 4.99055 8.2876L6.58881 7.00899C6.53149 6.85007 6.50024 6.67868 6.50024 6.5C6.50024 5.67157 7.17182 5 8.00024 5C8.297 5 8.57363 5.08617 8.80647 5.23486L10.7952 3.64387ZM6.67356 10.7831L4.89357 12.2071C5.81547 12.6713 6.86614 12.9993 7.99926 12.9993C10.1527 12.9993 12.0083 11.8145 13.2483 10.7618C13.8832 10.2227 14.3944 9.68613 14.7471 9.2845C14.9241 9.08302 15.0627 8.91373 15.1586 8.79271C15.2066 8.73216 15.244 8.68355 15.2703 8.64888L15.3014 8.60753L15.3106 8.59512L15.3135 8.59107L15.3146 8.58959L15.3151 8.58899C15.3153 8.58873 15.3154 8.58848 14.5072 7.99967L15.3154 8.58848L15.7444 7.99967L15.3154 7.41086L14.5072 7.99967C15.3154 7.41086 15.3153 7.41061 15.3151 7.41035L15.3146 7.40974L15.3135 7.40826L15.3106 7.40421L15.3014 7.39181L15.2703 7.35046C15.244 7.31579 15.2066 7.26718 15.1586 7.20662C15.0627 7.0856 14.9241 6.91632 14.7471 6.71483C14.4268 6.35009 13.9757 5.87403 13.42 5.38589L11.8296 6.65822C11.8714 6.69266 11.9128 6.7273 11.9538 6.76213C12.4786 7.20773 12.9091 7.65565 13.2136 7.99967C12.9091 8.34369 12.4786 8.7916 11.9538 9.2372C10.8383 10.1843 9.44004 10.9993 7.99926 10.9993C7.55083 10.9993 7.10651 10.9204 6.67356 10.7831ZM11.4723 6.94404C11.2542 8.66738 9.78282 10 8.00024 10C7.88936 10 7.77969 9.99484 7.67144 9.98476L11.4723 6.94404Z" fill="#F4AEDE"/>
<path d="M3 11.8008L13 3.80078" stroke="#F4AEDE" stroke-width="2" stroke-linecap="round"/>
</svg>
