<svg width="17" height="16" viewBox="0 0 17 16" fill="none" xmlns="http://www.w3.org/2000/svg">
<mask id="mask0_913_9448" style="mask-type:alpha" maskUnits="userSpaceOnUse" x="2" y="1" width="13" height="14">
<path fill-rule="evenodd" clip-rule="evenodd" d="M8.50004 1C6.38295 1 4.66671 2.71624 4.66671 4.83333V6.22922C3.64012 6.31392 2.83337 7.17393 2.83337 8.22238V12.6671C2.83337 13.7717 3.7288 14.6671 4.83337 14.6671H12.1667C13.2713 14.6671 14.1667 13.7717 14.1667 12.6671V8.22238C14.1667 7.17393 13.36 6.31392 12.3334 6.22922V4.83333C12.3334 2.71624 10.6171 1 8.50004 1ZM10.3334 6.22238V4.83333C10.3334 3.82081 9.51256 3 8.50004 3C7.48752 3 6.66671 3.82081 6.66671 4.83333V6.22238H10.3334ZM4.83337 12.6671L4.83337 8.22238H12.1667L12.1667 12.6671L4.83337 12.6671Z" fill="black"/>
</mask>
<g mask="url(#mask0_913_9448)">
<rect x="0.5" width="16" height="16" fill="#F4AEDE"/>
</g>
</svg>
