<?xml version="1.0" encoding="UTF-8"?>
<svg xmlns="http://www.w3.org/2000/svg" xmlns:xlink="http://www.w3.org/1999/xlink" width="32px" height="32px" viewBox="0 0 32 32" version="1.1">
<g id="surface1">
<path style=" stroke:none;fill-rule:nonzero;fill:rgb(100%,100%,100%);fill-opacity:1;" d="M 24.5625 16.5 C 24.5625 16.5 22.300781 15.113281 20.761719 12.847656 C 19.632812 11.1875 19.292969 9.09375 19.292969 9.09375 C 19.074219 7.652344 17.925781 6.472656 16.410156 6.285156 C 14.675781 6.070312 13.085938 7.230469 12.738281 8.914062 C 12.738281 8.914062 11.546875 13.40625 10.351562 15.371094 C 9.179688 17.300781 8.097656 19.351562 5.75 20.789062 C 5.1875 21.121094 4.78125 21.699219 4.695312 22.394531 C 4.546875 23.582031 5.390625 24.664062 6.578125 24.8125 C 7.765625 24.960938 8.851562 24.117188 9 22.929688 C 9.445312 19.660156 11.691406 15.746094 13.023438 13.882812 C 13.023438 13.878906 13.027344 13.875 13.027344 13.871094 C 13.03125 13.871094 13.03125 13.871094 13.03125 13.871094 C 13.785156 12.820312 15.074219 12.203125 16.449219 12.375 C 17.796875 12.542969 18.882812 13.425781 19.371094 14.597656 C 20.066406 16.066406 19.515625 18.828125 19.503906 18.921875 C 19.277344 20.746094 20.574219 22.410156 22.398438 22.636719 C 24.226562 22.863281 25.890625 21.566406 26.117188 19.742188 C 26.28125 18.40625 25.632812 17.164062 24.5625 16.5 Z M 24.5625 16.5 "/>
<path style=" stroke:none;fill-rule:nonzero;fill:rgb(100%,100%,100%);fill-opacity:1;" d="M 16 18.167969 C 17.195312 18.167969 18.167969 17.195312 18.167969 16 C 18.167969 14.800781 17.195312 13.832031 16 13.832031 C 14.800781 13.832031 13.832031 14.800781 13.832031 16 C 13.832031 17.195312 14.800781 18.167969 16 18.167969 Z M 16 18.167969 "/>
</g>
</svg>
