<svg width="21" height="20" viewBox="0 0 21 20" fill="none" xmlns="http://www.w3.org/2000/svg">
    <g clip-path="url(#clip0_645_4572)" filter="url(#filter0_d_645_4572)">
        <path d="M11.9748 12.4948L13.7109 11.8872L12.4957 11.4531L11.9748 12.4948Z" fill="#F0E2FB"/>
        <path d="M9.02322 12.4948L7.28711 11.8872L8.50239 11.4531L9.02322 12.4948Z" fill="#F0E2FB"/>
        <path d="M3.38043 9.89019L6.93945 8.76172L5.98459 10.411L7.37348 13.536H2.25195L3.38043 9.89019Z" fill="#F4AEDE"/>
        <path d="M9.02322 12.4944L9.11003 14.9249L7.37391 13.536L7.28711 11.8867L9.02322 12.4944Z" fill="#F4AEDE"/>
        <path d="M9.10872 17.7036L7.02539 16.0543L9.10872 14.9258V17.7036Z" fill="#F4AEDE"/>
        <path d="M9.54427 14.6662L9.11024 14.9266L9.02344 12.4961L9.54427 13.7114V14.6662Z" fill="#F4AEDE"/>
        <path fill-rule="evenodd" clip-rule="evenodd" d="M9.45855 10.5838L5.98633 10.4102L7.28841 11.8858L7.2884 11.8858L7.28841 11.8859L7.28841 11.8858L8.50368 11.4518L9.02451 12.4935L9.02452 12.4935L9.45855 10.5838Z" fill="#7B337C"/>
        <path d="M7.37435 13.5352L7.02713 16.0525L5.29102 13.5352H7.37435Z" fill="#7B337C"/>
        <path fill-rule="evenodd" clip-rule="evenodd" d="M3.03407 2.25L2.16602 4.68056L2.71294 7.02452L2.16602 7.34029L2.76682 7.9617L2.33962 8.20834L2.96918 8.85951L2.59496 9.07556L3.38129 9.88888L3.38129 9.88889L6.94032 8.76042L9.28407 7.0243L3.03407 2.25Z" fill="#7B337C"/>
        <path fill-rule="evenodd" clip-rule="evenodd" d="M8.24154 4.15972L3.0332 2.25L9.2832 7.0243L8.24154 4.15972Z" fill="#B864A2"/>
        <path d="M6.93924 8.75955L9.28299 7.02344L9.4566 10.5825L5.98438 10.4089L6.93924 8.75955Z" fill="#B864A2"/>
        <path fill-rule="evenodd" clip-rule="evenodd" d="M5.98438 10.4102L7.37326 13.5352L7.28646 11.8859L5.98438 10.4102Z" fill="#B864A2"/>
        <path d="M2.25195 13.5352H5.29015L7.02626 16.0525L3.29362 17.181L2.25195 13.5352Z" fill="#B864A2"/>
        <path d="M9.10872 14.924L7.02539 16.0525L7.37261 13.5352L9.10872 14.924Z" fill="#B864A2"/>
        <path d="M9.54232 13.707L9.02148 12.4918L9.45551 10.582L9.54232 13.707Z" fill="#B864A2"/>
        <path d="M9.10872 17.7001L7.02539 16.0508L9.10872 17.0056V17.7001Z" fill="#B864A2"/>
        <path d="M17.6176 9.89019L14.0586 8.76172L15.0135 10.411L13.6246 13.536H18.7461L17.6176 9.89019Z" fill="#F4AEDE"/>
        <path d="M11.9748 12.4944L11.888 14.9249L13.6241 13.536L13.7109 11.8867L11.9748 12.4944Z" fill="#F4AEDE"/>
        <path d="M11.8893 17.7036L13.9727 16.0543L11.8893 14.9258V17.7036Z" fill="#F4AEDE"/>
        <path d="M11.4538 14.6662L11.8878 14.9266L11.9746 12.4961L11.4538 13.7114V14.6662Z" fill="#F4AEDE"/>
        <path fill-rule="evenodd" clip-rule="evenodd" d="M12.7565 4.15972L17.9648 2.25L11.7148 7.0243L12.7565 4.15972Z" fill="#B864A2"/>
        <path d="M14.0588 8.75955L11.7151 7.02344L11.5415 10.5825L15.0137 10.4089L14.0588 8.75955Z" fill="#B864A2"/>
        <path fill-rule="evenodd" clip-rule="evenodd" d="M15.0137 10.4102L13.6248 13.5352L13.7116 11.8859L15.0137 10.4102Z" fill="#B864A2"/>
        <path d="M18.7461 13.5352H15.7079L13.9718 16.0525L17.7044 17.181L18.7461 13.5352Z" fill="#B864A2"/>
        <path d="M11.8893 14.924L13.9727 16.0525L13.6254 13.5352L11.8893 14.924Z" fill="#B864A2"/>
        <path d="M11.8893 17.7001L13.9727 16.0508L11.8893 17.0056V17.7001Z" fill="#B864A2"/>
        <path d="M11.4538 13.707L11.9746 12.4918L11.5406 10.582L11.4538 13.707Z" fill="#B864A2"/>
        <path fill-rule="evenodd" clip-rule="evenodd" d="M11.5395 10.5838L15.0117 10.4102L13.7096 11.8858L12.4944 11.4518L11.9735 12.4935L13.7096 11.8859L11.9735 12.4935L11.5395 10.5838Z" fill="#7B337C"/>
        <path d="M13.6237 13.5352L13.9709 16.0525L15.707 13.5352H13.6237Z" fill="#7B337C"/>
        <path fill-rule="evenodd" clip-rule="evenodd" d="M17.964 2.25L18.832 4.68056L18.2851 7.02453L18.832 7.34029L18.2312 7.9617L18.6584 8.20834L18.0289 8.85951L18.4031 9.07556L17.6168 9.88889L14.0577 8.76042L11.714 7.0243L17.964 2.25Z" fill="#7B337C"/>
        <path d="M8.24219 4.16016H12.7561L11.7144 7.02474L11.5408 10.5838L11.454 14.6636H9.54427L9.45747 10.5838L9.28385 7.02474L8.24219 4.16016Z" fill="#F4AEDE"/>
        <path d="M9.5434 14.6641H11.5399L11.8872 14.9245V16.4002L11.7135 16.3134H9.28299L9.10938 16.4002V14.9245L9.5434 14.6641Z" fill="#7B337C"/>
        <path d="M9.10938 16.3993L9.28299 16.3125H11.7135L11.8872 16.3993V17.7014H9.10938V16.3993Z" fill="#B864A2"/>
    </g>
    <defs>
        <filter id="filter0_d_645_4572" x="0.166016" y="-0.332031" width="20.666" height="20.668" filterUnits="userSpaceOnUse" color-interpolation-filters="sRGB">
            <feFlood flood-opacity="0" result="BackgroundImageFix"/>
            <feColorMatrix in="SourceAlpha" type="matrix" values="0 0 0 0 0 0 0 0 0 0 0 0 0 0 0 0 0 0 127 0" result="hardAlpha"/>
            <feOffset/>
            <feGaussianBlur stdDeviation="1"/>
            <feComposite in2="hardAlpha" operator="out"/>
            <feColorMatrix type="matrix" values="0 0 0 0 0.419608 0 0 0 0 0.909804 0 0 0 0 0.984314 0 0 0 0.1 0"/>
            <feBlend mode="normal" in2="BackgroundImageFix" result="effect1_dropShadow_645_4572"/>
            <feBlend mode="normal" in="SourceGraphic" in2="effect1_dropShadow_645_4572" result="shape"/>
        </filter>
        <clipPath id="clip0_645_4572">
            <rect width="16.6667" height="16.6667" fill="white" transform="translate(2.16602 1.66797)"/>
        </clipPath>
    </defs>
</svg>
