<svg width="22" height="28" viewBox="0 0 22 28" fill="none" xmlns="http://www.w3.org/2000/svg">
    <mask id="mask0_645_3125" style="mask-type:alpha" maskUnits="userSpaceOnUse" x="0" y="0" width="22" height="28">
        <path fill-rule="evenodd" clip-rule="evenodd" d="M16.9996 8.04688C16.9996 11.3606 14.3133 14.0469 10.9996 14.0469C7.6859 14.0469 4.99961 11.3606 4.99961 8.04688C4.99961 4.73317 7.6859 2.04688 10.9996 2.04688C14.3133 2.04688 16.9996 4.73317 16.9996 8.04688ZM18.9996 8.04688C18.9996 12.4652 15.4179 16.0469 10.9996 16.0469C6.58133 16.0469 2.99961 12.4652 2.99961 8.04688C2.99961 3.6286 6.58133 0.046875 10.9996 0.046875C15.4179 0.046875 18.9996 3.6286 18.9996 8.04688ZM2.37902 26.555C3.10268 23.0444 6.61625 20.2469 10.9996 20.2469C15.383 20.2469 18.8965 23.0444 19.6202 26.555C19.7317 27.0959 20.2606 27.444 20.8015 27.3325C21.3424 27.221 21.6905 26.6921 21.579 26.1512C20.636 21.5765 16.1873 18.2469 10.9996 18.2469C5.81191 18.2469 1.36321 21.5765 0.420205 26.1512C0.308703 26.6921 0.656809 27.221 1.19772 27.3325C1.73863 27.444 2.26752 27.0959 2.37902 26.555Z" fill="#E6E6E6"/>
    </mask>
    <g mask="url(#mask0_645_3125)">
        <rect x="-5" y="-2" width="32" height="32" fill="#CECECE"/>
    </g>
</svg>

