<svg width="34" height="34" viewBox="0 0 34 34" fill="none" xmlns="http://www.w3.org/2000/svg">
    <g filter="url(#filter0_dd_645_2684)">
        <mask id="mask0_645_2684" style="mask-type:alpha" maskUnits="userSpaceOnUse" x="4" y="4" width="26" height="26">
            <path fill-rule="evenodd" clip-rule="evenodd" d="M15.992 7.4076C16.4503 6.95534 16.8538 6.80078 17.1896 6.80078C17.5254 6.80078 17.929 6.95534 18.3872 7.4076C18.8498 7.86409 19.3122 8.57424 19.7221 9.5307C19.9728 10.1156 20.1964 10.7753 20.3861 11.4966C19.364 11.374 18.2918 11.3093 17.1896 11.3093C16.0875 11.3093 15.0153 11.374 13.9932 11.4966C14.1828 10.7753 14.4065 10.1156 14.6571 9.5307C15.0671 8.57424 15.5295 7.86409 15.992 7.4076ZM11.852 11.853C12.0998 10.7079 12.4262 9.65901 12.8189 8.74287C13.0078 8.30192 13.2153 7.88437 13.4412 7.49752C10.7183 8.55123 8.55025 10.7192 7.49654 13.4422C7.88339 13.2163 8.30095 13.0088 8.74189 12.8198C9.65803 12.4272 10.7069 12.1008 11.852 11.853ZM4.7998 17.1906C4.7998 10.3479 10.3469 4.80078 17.1896 4.80078C24.0324 4.80078 29.5795 10.3479 29.5795 17.1906C29.5795 24.0333 24.0324 29.5804 17.1896 29.5804C10.3469 29.5804 4.7998 24.0333 4.7998 17.1906ZM7.49654 20.939C8.55025 23.662 10.7183 25.83 13.4412 26.8837C13.2153 26.4969 13.0078 26.0793 12.8189 25.6384C12.4262 24.7222 12.0998 23.6733 11.852 22.5282C10.7069 22.2805 9.65803 21.954 8.74189 21.5614C8.30095 21.3724 7.8834 21.165 7.49654 20.939ZM11.4957 20.3871C11.373 19.365 11.3083 18.2928 11.3083 17.1906C11.3083 16.0885 11.373 15.0163 11.4957 13.9941C10.7743 14.1838 10.1146 14.4075 9.52973 14.6581C8.57326 15.068 7.86312 15.5305 7.40662 15.993C6.95437 16.4513 6.7998 16.8548 6.7998 17.1906C6.7998 17.1919 6.7998 17.1932 6.79981 17.1946C6.80101 17.5296 6.95613 17.9318 7.40662 18.3882C7.86312 18.8508 8.57326 19.3132 9.52973 19.7231C10.1146 19.9738 10.7743 20.1974 11.4957 20.3871ZM13.5706 20.8097C13.4017 19.6852 13.3083 18.4674 13.3083 17.1906C13.3083 15.9138 13.4017 14.696 13.5706 13.5715C14.6951 13.4027 15.9128 13.3093 17.1896 13.3093C18.4665 13.3093 19.6842 13.4027 20.8087 13.5715C20.9776 14.696 21.071 15.9138 21.071 17.1906C21.071 18.4674 20.9776 19.6852 20.8087 20.8097C19.6842 20.9786 18.4665 21.072 17.1896 21.072C15.9128 21.072 14.6951 20.9786 13.5706 20.8097ZM13.9932 22.8846C14.1828 23.6059 14.4065 24.2657 14.6571 24.8505C15.0671 25.807 15.5295 26.5171 15.992 26.9736C16.4503 27.4259 16.8538 27.5804 17.1896 27.5804C17.5254 27.5804 17.929 27.4259 18.3872 26.9736C18.8498 26.5171 19.3122 25.807 19.7221 24.8505C19.9728 24.2657 20.1964 23.6059 20.3861 22.8846C19.364 23.0072 18.2918 23.072 17.1896 23.072C16.0875 23.072 15.0153 23.0072 13.9932 22.8846ZM22.5272 22.5282C22.2795 23.6733 21.9531 24.7222 21.5604 25.6384C21.3714 26.0793 21.164 26.4969 20.9381 26.8837C23.661 25.83 25.829 23.662 26.8827 20.939C26.4959 21.165 26.0783 21.3724 25.6374 21.5614C24.7212 21.954 23.6724 22.2805 22.5272 22.5282ZM26.8827 13.4422C25.829 10.7192 23.661 8.55123 20.9381 7.49752C21.164 7.88437 21.3714 8.30192 21.5604 8.74287C21.9531 9.65901 22.2795 10.7079 22.5272 11.853C23.6724 12.1008 24.7212 12.4272 25.6374 12.8198C26.0783 13.0088 26.4959 13.2163 26.8827 13.4422ZM22.8836 13.9941C23.6049 14.1838 24.2647 14.4075 24.8495 14.6581C25.806 15.068 26.5162 15.5305 26.9727 15.993C27.4249 16.4513 27.5795 16.8548 27.5795 17.1906C27.5795 17.5264 27.4249 17.93 26.9727 18.3882C26.5162 18.8508 25.806 19.3132 24.8495 19.7231C24.2647 19.9738 23.6049 20.1974 22.8836 20.3871C23.0062 19.365 23.071 18.2928 23.071 17.1906C23.071 16.0885 23.0062 15.0163 22.8836 13.9941Z" fill="white"/>
        </mask>
        <g mask="url(#mask0_645_2684)">
            <rect x="1" y="1" width="32" height="32" fill="white"/>
        </g>
    </g>
    <defs>
        <filter id="filter0_dd_645_2684" x="-3" y="-3" width="40" height="40" filterUnits="userSpaceOnUse" color-interpolation-filters="sRGB">
            <feFlood flood-opacity="0" result="BackgroundImageFix"/>
            <feColorMatrix in="SourceAlpha" type="matrix" values="0 0 0 0 0 0 0 0 0 0 0 0 0 0 0 0 0 0 127 0" result="hardAlpha"/>
            <feOffset/>
            <feGaussianBlur stdDeviation="2"/>
            <feComposite in2="hardAlpha" operator="out"/>
            <feColorMatrix type="matrix" values="0 0 0 0 1 0 0 0 0 1 0 0 0 0 1 0 0 0 0.5 0"/>
            <feBlend mode="normal" in2="BackgroundImageFix" result="effect1_dropShadow_645_2684"/>
            <feColorMatrix in="SourceAlpha" type="matrix" values="0 0 0 0 0 0 0 0 0 0 0 0 0 0 0 0 0 0 127 0" result="hardAlpha"/>
            <feOffset/>
            <feGaussianBlur stdDeviation="2"/>
            <feComposite in2="hardAlpha" operator="out"/>
            <feColorMatrix type="matrix" values="0 0 0 0 1 0 0 0 0 1 0 0 0 0 1 0 0 0 0.5 0"/>
            <feBlend mode="normal" in2="effect1_dropShadow_645_2684" result="effect2_dropShadow_645_2684"/>
            <feBlend mode="normal" in="SourceGraphic" in2="effect2_dropShadow_645_2684" result="shape"/>
        </filter>
    </defs>
</svg>
